<?xml version="1.0" standalone="no"?>
<!DOCTYPE svg PUBLIC "-//W3C//DTD SVG 20010904//EN"
 "http://www.w3.org/TR/2001/REC-SVG-20010904/DTD/svg10.dtd">
<svg version="1.0" xmlns="http://www.w3.org/2000/svg"
 width="300.000000pt" height="300.000000pt" viewBox="0 0 300.000000 300.000000"
 preserveAspectRatio="xMidYMid meet">
<metadata>
Created by potrace 1.10, written by Peter Selinger 2001-2011
</metadata>
<g transform="translate(0.000000,300.000000) scale(0.100000,-0.100000)"
fill="#000000" stroke="none">
<path d="M1455 2584 c-98 -42 -336 -92 -646 -137 l-155 -22 49 -113 50 -113
31 6 c46 10 352 80 496 115 68 16 126 28 128 25 3 -3 -66 -192 -205 -555 l-48
-125 -105 -7 c-249 -18 -462 -115 -614 -279 -143 -155 -206 -294 -206 -459 0
-271 171 -433 410 -390 140 25 249 109 341 260 28 47 115 214 193 371 l141
287 35 -5 c173 -23 450 -90 663 -159 l138 -46 -6 -31 c-17 -81 -81 -253 -136
-362 -67 -136 -150 -257 -258 -375 -40 -45 -72 -82 -70 -84 22 -16 220 -126
227 -126 16 0 110 117 178 221 115 176 218 410 260 592 10 42 21 77 26 77 10
0 276 -134 373 -188 l70 -39 57 115 57 114 -162 77 c-89 43 -206 95 -260 117
-92 37 -97 40 -91 64 3 14 9 157 13 318 7 286 8 293 29 308 33 23 28 50 -10
63 -31 10 -222 51 -238 51 -4 0 -9 -151 -12 -335 -3 -185 -8 -339 -12 -342 -3
-3 -61 10 -128 30 -230 68 -408 109 -593 138 -44 6 -81 13 -83 14 -6 5 191
444 254 565 55 106 76 138 99 149 58 27 54 45 -19 98 -28 21 -81 61 -118 90
-37 29 -71 53 -75 53 -4 -1 -35 -12 -68 -26z m-385 -1140 c0 -9 -193 -393
-226 -452 -94 -163 -156 -217 -251 -216 -94 2 -143 56 -143 161 0 109 53 210
174 333 66 67 156 123 236 149 63 20 210 37 210 25z"/>
</g>
</svg>
